<svg xmlns="http://www.w3.org/2000/svg" xmlns:xlink="http://www.w3.org/1999/xlink" enable-background="new 0 0 3000 2500" viewBox="0 0 3000 2500"><rect width="3000" height="2500" fill="#ffffff" class="colorFFF svgShape"/><defs><path id="a" d="M936.119,2144.021c0,0-795.979-317.932-344.8-746.776c451.18-428.843,1091.31-535.865,1462.082-370.582     c370.771,165.284,407.18,847.823-35.066,1117.358H936.119z" fill="#000000" class="color000 svgShape"/></defs><use fill="#E6F5FF" overflow="visible" xlink:href="#a"/><clipPath id="b"><use overflow="visible" xlink:href="#a"/></clipPath><g clip-path="url(#b)" fill="#000000" class="color000 svgShape"><path fill="none" stroke="#FFF" stroke-miterlimit="10" d="M-110.288,1437.402     c-190.721,414.479,170.26,767.596,542.857,749.971c372.597-17.625,313.297,707.109-152.924,764.326" class="colorStrokeFFF svgStroke"/><path fill="none" stroke="#FFF" stroke-miterlimit="10" stroke-width="1.222" d="M-44.914,1413.12     c-190.72,414.479,170.261,767.596,542.858,749.971c372.596-17.625,313.296,707.109-152.926,764.326" class="colorStrokeFFF svgStroke"/><path fill="none" stroke="#FFF" stroke-miterlimit="10" stroke-width="1.444" d="M20.461,1388.837     c-190.72,414.479,170.261,767.596,542.857,749.972c372.597-17.625,313.296,707.109-152.925,764.326" class="colorStrokeFFF svgStroke"/><path fill="none" stroke="#FFF" stroke-miterlimit="10" stroke-width="1.667" d="M85.835,1364.555     c-190.719,414.479,170.262,767.596,542.858,749.971s313.296,707.109-152.925,764.326" class="colorStrokeFFF svgStroke"/><path fill="none" stroke="#FFF" stroke-miterlimit="10" stroke-width="1.889" d="M151.21,1340.271     c-190.72,414.479,170.262,767.596,542.857,749.971c372.598-17.625,313.297,707.109-152.924,764.326" class="colorStrokeFFF svgStroke"/><path fill="none" stroke="#FFF" stroke-miterlimit="10" stroke-width="2.111" d="M216.585,1315.989     c-190.719,414.479,170.261,767.597,542.857,749.971c372.598-17.625,313.297,707.11-152.924,764.326" class="colorStrokeFFF svgStroke"/><path fill="none" stroke="#FFF" stroke-miterlimit="10" stroke-width="2.333" d="M281.96,1291.707     c-190.72,414.479,170.261,767.596,542.858,749.971c372.597-17.625,313.296,707.109-152.925,764.326" class="colorStrokeFFF svgStroke"/><path fill="none" stroke="#FFF" stroke-miterlimit="10" stroke-width="2.555" d="M347.335,1267.424     c-190.72,414.479,170.261,767.597,542.857,749.971c372.598-17.625,313.297,707.109-152.924,764.326" class="colorStrokeFFF svgStroke"/><path fill="none" stroke="#FFF" stroke-miterlimit="10" stroke-width="2.778" d="M412.71,1243.142     c-190.72,414.479,170.261,767.597,542.858,749.971c372.597-17.625,313.296,707.109-152.925,764.326" class="colorStrokeFFF svgStroke"/><path fill="none" stroke="#FFF" stroke-miterlimit="10" stroke-width="3" d="M478.085,1218.859     c-190.72,414.479,170.261,767.596,542.857,749.971c372.598-17.625,313.297,707.109-152.924,764.326" class="colorStrokeFFF svgStroke"/><path fill="none" stroke="#FFF" stroke-miterlimit="10" stroke-width="3.222" d="M543.46,1194.576     c-190.721,414.479,170.261,767.596,542.857,749.971c372.598-17.625,313.297,707.109-152.925,764.326" class="colorStrokeFFF svgStroke"/><path fill="none" stroke="#FFF" stroke-miterlimit="10" stroke-width="3.444" d="M608.835,1170.293     c-190.72,414.479,170.261,767.596,542.857,749.971c372.596-17.625,313.296,707.109-152.925,764.325" class="colorStrokeFFF svgStroke"/><path fill="none" stroke="#FFF" stroke-miterlimit="10" stroke-width="3.667" d="M674.21,1146.011     c-190.72,414.479,170.26,767.597,542.857,749.972c372.596-17.626,313.295,707.109-152.925,764.325" class="colorStrokeFFF svgStroke"/><path fill="none" stroke="#FFF" stroke-miterlimit="10" stroke-width="3.889" d="M739.585,1121.729     c-190.721,414.479,170.26,767.596,542.857,749.971c372.598-17.625,313.295,707.109-152.925,764.326" class="colorStrokeFFF svgStroke"/><path fill="none" stroke="#FFF" stroke-miterlimit="10" stroke-width="4.111" d="M804.96,1097.445     c-190.721,414.479,170.26,767.596,542.857,749.971c372.596-17.625,313.295,707.11-152.925,764.326" class="colorStrokeFFF svgStroke"/><path fill="none" stroke="#FFF" stroke-miterlimit="10" stroke-width="4.333" d="M870.335,1073.163     c-190.721,414.479,170.26,767.596,542.857,749.971c372.596-17.625,313.295,707.11-152.925,764.326" class="colorStrokeFFF svgStroke"/><path fill="none" stroke="#FFF" stroke-miterlimit="10" stroke-width="4.556" d="M935.71,1048.88     c-190.721,414.479,170.26,767.596,542.857,749.971c372.596-17.625,313.295,707.109-152.925,764.325" class="colorStrokeFFF svgStroke"/><path fill="none" stroke="#FFF" stroke-miterlimit="10" stroke-width="4.778" d="M1001.085,1024.598     c-190.721,414.479,170.26,767.596,542.858,749.971c372.596-17.625,313.295,707.109-152.925,764.326" class="colorStrokeFFF svgStroke"/><path fill="none" stroke="#FFF" stroke-miterlimit="10" stroke-width="5" d="M1066.46,1000.315     c-190.721,414.479,170.26,767.596,542.858,749.97c372.596-17.624,313.295,707.111-152.926,764.326" class="colorStrokeFFF svgStroke"/><path fill="none" stroke="#FFF" stroke-miterlimit="10" stroke-width="5.222" d="M1131.835,976.032     c-190.721,414.479,170.26,767.597,542.858,749.972c372.596-17.625,313.295,707.109-152.926,764.325" class="colorStrokeFFF svgStroke"/><path fill="none" stroke="#FFF" stroke-miterlimit="10" stroke-width="5.444" d="M1197.21,951.75     c-190.721,414.479,170.26,767.596,542.858,749.971c372.596-17.625,313.295,707.109-152.926,764.326" class="colorStrokeFFF svgStroke"/><path fill="none" stroke="#FFF" stroke-miterlimit="10" stroke-width="5.667" d="M1262.585,927.467     c-190.721,414.479,170.26,767.597,542.858,749.972c372.596-17.625,313.295,707.109-152.926,764.325" class="colorStrokeFFF svgStroke"/><path fill="none" stroke="#FFF" stroke-miterlimit="10" stroke-width="5.889" d="M1327.96,903.185     c-190.721,414.479,170.26,767.596,542.858,749.971c372.596-17.625,313.295,707.11-152.926,764.325" class="colorStrokeFFF svgStroke"/><path fill="none" stroke="#FFF" stroke-miterlimit="10" stroke-width="6.111" d="M1393.335,878.901     c-190.721,414.479,170.26,767.597,542.858,749.972c372.596-17.625,313.295,707.109-152.926,764.325" class="colorStrokeFFF svgStroke"/><path fill="none" stroke="#FFF" stroke-miterlimit="10" stroke-width="6.333" d="M1458.71,854.619     c-190.721,414.479,170.26,767.597,542.858,749.971c372.596-17.625,313.295,707.11-152.926,764.325" class="colorStrokeFFF svgStroke"/><path fill="none" stroke="#FFF" stroke-miterlimit="10" stroke-width="6.556" d="M1524.084,830.336     c-190.719,414.48,170.262,767.597,542.859,749.972c372.596-17.625,313.295,707.109-152.926,764.325" class="colorStrokeFFF svgStroke"/><path fill="none" stroke="#FFF" stroke-miterlimit="10" stroke-width="6.778" d="M1589.459,806.054     c-190.719,414.479,170.262,767.597,542.859,749.971c372.596-17.624,313.295,707.11-152.926,764.326" class="colorStrokeFFF svgStroke"/><path fill="none" stroke="#FFF" stroke-miterlimit="10" stroke-width="7" d="M1654.834,781.771     c-190.72,414.479,170.262,767.596,542.857,749.971c372.598-17.625,313.297,707.11-152.924,764.325" class="colorStrokeFFF svgStroke"/><path fill="none" stroke="#FFF" stroke-miterlimit="10" stroke-width="7.222" d="M1720.209,757.488     c-190.719,414.479,170.26,767.597,542.859,749.971c372.596-17.624,313.295,707.11-152.926,764.326" class="colorStrokeFFF svgStroke"/><path fill="none" stroke="#FFF" stroke-miterlimit="10" stroke-width="7.444" d="M1785.584,733.206     c-190.719,414.48,170.26,767.597,542.857,749.971c372.598-17.625,313.297,707.11-152.924,764.325" class="colorStrokeFFF svgStroke"/><path fill="none" stroke="#FFF" stroke-miterlimit="10" stroke-width="7.667" d="M1850.961,708.923     c-190.721,414.479,170.258,767.597,542.855,749.972s313.297,707.11-152.924,764.325" class="colorStrokeFFF svgStroke"/><path fill="none" stroke="#FFF" stroke-miterlimit="10" stroke-width="7.889" d="M1916.334,684.641     c-190.721,414.479,170.26,767.596,542.857,749.971c372.598-17.624,313.295,707.11-152.924,764.325" class="colorStrokeFFF svgStroke"/><path fill="none" stroke="#FFF" stroke-miterlimit="10" stroke-width="8.111" d="M1981.709,660.357     c-190.721,414.48,170.26,767.597,542.859,749.972c372.596-17.624,313.295,707.11-152.928,764.325" class="colorStrokeFFF svgStroke"/><path fill="none" stroke="#FFF" stroke-miterlimit="10" stroke-width="8.333" d="M2047.084,636.075     c-190.721,414.48,170.262,767.597,542.859,749.972c372.596-17.625,313.293,707.109-152.928,764.325" class="colorStrokeFFF svgStroke"/><path fill="none" stroke="#FFF" stroke-miterlimit="10" stroke-width="8.556" d="M2112.459,611.792     c-190.721,414.479,170.26,767.596,542.857,749.971s313.295,707.11-152.926,764.325" class="colorStrokeFFF svgStroke"/><path fill="none" stroke="#FFF" stroke-miterlimit="10" stroke-width="8.778" d="M2177.834,587.51     c-190.721,414.48,170.262,767.597,542.857,749.971c372.598-17.624,313.295,707.111-152.926,764.325" class="colorStrokeFFF svgStroke"/><path fill="none" stroke="#FFF" stroke-miterlimit="10" stroke-width="9" d="M2243.209,563.227     c-190.721,414.48,170.26,767.597,542.857,749.971c372.598-17.624,313.295,707.11-152.926,764.325" class="colorStrokeFFF svgStroke"/></g><rect width="581.15" height="332.624" x="847.72" y="391.916" fill="#bbe2ef" class="colorBBE2EF svgShape"/><rect width="49.137" height="49.138" x="882.999" y="421.997" fill="#ffffff" class="colorFFF svgShape"/><rect width="257.975" height="19.215" x="949.46" y="421.997" fill="#ffffff" class="colorFFF svgShape"/><rect width="130.721" height="19.214" x="949.46" y="451.92" fill="#ffffff" class="colorFFF svgShape"/><rect width="49.137" height="49.138" x="882.999" y="497.875" fill="#ffffff" class="colorFFF svgShape"/><rect width="257.975" height="19.214" x="949.46" y="497.875" fill="#ffffff" class="colorFFF svgShape"/><rect width="130.721" height="19.213" x="949.46" y="527.8" fill="#ffffff" class="colorFFF svgShape"/><rect width="49.137" height="49.138" x="882.999" y="573.754" fill="#ffffff" class="colorFFF svgShape"/><rect width="257.975" height="19.214" x="949.46" y="573.754" fill="#ffffff" class="colorFFF svgShape"/><rect width="130.721" height="19.213" x="949.46" y="603.679" fill="#ffffff" class="colorFFF svgShape"/><rect width="49.137" height="49.138" x="882.999" y="649.634" fill="#ffffff" class="colorFFF svgShape"/><rect width="257.975" height="19.213" x="949.46" y="649.634" fill="#ffffff" class="colorFFF svgShape"/><rect width="130.721" height="19.215" x="949.46" y="679.557" fill="#ffffff" class="colorFFF svgShape"/><rect width="184.265" height="143.792" x="1228.538" y="419.162" fill="#ffffff" class="colorFFF svgShape"/><rect width="184.265" height="122.752" x="1228.538" y="580.526" fill="#ffffff" class="colorFFF svgShape"/><path fill="#8ecc36" d="M1245.546 527.8c11.814-31.152 31.658-67.375 47.25-46.587 15.592 20.789 37.797 42.459 42.994 35.876 5.199-6.582 16.537-27.845 30.24-29.733 13.701-1.89 37.324 40.444 37.324 40.444H1245.546zM1245.546 675.993c11.814-31.151 31.658-67.376 47.25-46.587 15.592 20.79 37.797 42.46 42.994 35.877 5.199-6.583 16.537-27.844 30.24-29.733 13.701-1.891 37.324 40.443 37.324 40.443H1245.546z" class="color8ECC36 svgShape"/><polygon fill="#ff8500" points="886.148 444.833 898.118 464.046 928.673 438.848 927.097 437.273 898.394 456.29 887.054 443.651" class="colorFF8500 svgShape"/><polygon fill="#ff8500" points="886.148 518.193 898.118 537.408 928.673 512.208 927.097 510.633 898.394 529.651 887.054 517.012" class="colorFF8500 svgShape"/><polygon fill="#ff8500" points="886.148 591.553 898.118 610.768 928.673 585.57 927.097 583.995 898.394 603.011 887.054 590.373" class="colorFF8500 svgShape"/><polygon fill="#ff8500" points="886.148 664.915 898.118 684.128 928.673 658.93 927.097 657.355 898.394 676.372 887.054 663.733" class="colorFF8500 svgShape"/><g fill="#000000" class="color000 svgShape"><rect width="581.149" height="332.625" x="706.037" y="854.707" fill="#bbe2ef" class="colorBBE2EF svgShape"/><rect width="232.459" height="13.859" x="751.811" y="891.987" fill="#ffffff" class="colorFFF svgShape"/><rect width="136.703" height="13.86" x="751.811" y="917.816" fill="#ffffff" class="colorFFF svgShape"/><rect width="232.459" height="13.86" x="751.811" y="966.954" fill="#ffffff" class="colorFFF svgShape"/><rect width="136.703" height="13.86" x="751.811" y="992.783" fill="#ffffff" class="colorFFF svgShape"/><rect width="232.459" height="13.86" x="751.811" y="1041.92" fill="#ffffff" class="colorFFF svgShape"/><rect width="136.703" height="13.861" x="751.811" y="1067.749" fill="#ffffff" class="colorFFF svgShape"/><rect width="232.459" height="13.86" x="751.811" y="1116.887" fill="#ffffff" class="colorFFF svgShape"/><rect width="136.703" height="13.861" x="751.811" y="1142.716" fill="#ffffff" class="colorFFF svgShape"/><path fill="#ff8500" d="M1241.295,1027.749c0,56.887-46.115,103.001-103.001,103.001s-103-46.114-103-103.001    c0-56.885,46.114-103,103-103c3.647,0,7.257,0.189,10.811,0.567l-10.811,102.433l101.8-15.761    C1240.889,1017.128,1241.295,1022.392,1241.295,1027.749z" class="colorFF8500 svgShape"/><path fill="#8ecc36" d="M1249.229,1002.896l-101.8,15.761l10.811-102.433C1204.826,921.081,1242.18,956.99,1249.229,1002.896z" class="color8ECC36 svgShape"/></g><g fill="#000000" class="color000 svgShape"><rect width="322.951" height="417.394" x="2308.68" y="1324.914" fill="#bbe2ef" class="colorBBE2EF svgShape"/><rect width="235.574" height="18.335" x="2352.368" y="1359.092" fill="#ffffff" class="colorFFF svgShape"/><rect width="235.574" height="18.336" x="2352.368" y="1395.258" fill="#ffffff" class="colorFFF svgShape"/><rect width="235.574" height="18.336" x="2352.368" y="1431.424" fill="#ffffff" class="colorFFF svgShape"/><rect width="159.5" height="18.335" x="2352.368" y="1467.591" fill="#ffffff" class="colorFFF svgShape"/><rect width="235.574" height="18.336" x="2352.368" y="1503.756" fill="#ffffff" class="colorFFF svgShape"/><rect width="235.574" height="18.336" x="2352.368" y="1539.922" fill="#ffffff" class="colorFFF svgShape"/><rect width="117.788" height="100.944" x="2470.154" y="1613.44" fill="#ffffff" class="colorFFF svgShape"/><rect width="108.116" height="100.944" x="2352.368" y="1613.44" fill="#ffffff" class="colorFFF svgShape"/><rect width="117.786" height="18.335" x="2352.368" y="1576.089" fill="#ffffff" class="colorFFF svgShape"/></g><g fill="#000000" class="color000 svgShape"><rect width="322.951" height="417.393" x="2050.918" y="599.587" fill="#bbe2ef" class="colorBBE2EF svgShape"/><rect width="235.573" height="18.335" x="2094.606" y="751.431" fill="#ffffff" class="colorFFF svgShape"/><rect width="235.573" height="18.335" x="2094.606" y="787.597" fill="#ffffff" class="colorFFF svgShape"/><rect width="120.367" height="18.335" x="2209.813" y="652.749" fill="#ffffff" class="colorFFF svgShape"/><rect width="78.486" height="18.335" x="2209.813" y="688.915" fill="#ffffff" class="colorFFF svgShape"/><rect width="120.367" height="18.335" x="2209.813" y="888.992" fill="#ffffff" class="colorFFF svgShape"/><rect width="78.486" height="18.335" x="2209.813" y="925.158" fill="#ffffff" class="colorFFF svgShape"/><rect width="100.523" height="93.854" x="2098.402" y="873.505" fill="#ffffff" class="colorFFF svgShape"/><rect width="117.786" height="18.335" x="2094.606" y="823.763" fill="#ffffff" class="colorFFF svgShape"/><circle cx="2127.822" cy="669.23" r="27.979" fill="none" stroke="#FF8500" stroke-miterlimit="10" stroke-width="8" class="colorStrokeFF8500 svgStroke"/><line x1="2146.423" x2="2191.354" y1="690.124" y2="732.369" fill="none" stroke="#FF8500" stroke-miterlimit="10" stroke-width="8" class="colorStrokeFF8500 svgStroke"/></g><g fill="#000000" class="color000 svgShape"><rect width="581.148" height="332.624" x="368.49" y="1300.13" fill="#bbe2ef" class="colorBBE2EF svgShape"/><rect width="36.191" height="63.649" x="463.888" y="1514.666" fill="#ff8500" class="colorFF8500 svgShape"/><rect width="36.19" height="101.264" x="527.662" y="1477.052" fill="#8ecc36" class="color8ECC36 svgShape"/><rect width="36.19" height="127.298" x="591.434" y="1451.018" fill="#ff8500" class="colorFF8500 svgShape"/><rect width="36.191" height="74.405" x="655.207" y="1503.91" fill="#8ecc36" class="color8ECC36 svgShape"/><rect width="36.19" height="138.182" x="718.98" y="1440.134" fill="#ff8500" class="colorFF8500 svgShape"/><rect width="36.189" height="189.81" x="782.753" y="1388.506" fill="#8ecc36" class="color8ECC36 svgShape"/><path fill="none" stroke="#8ECC36" stroke-miterlimit="10" stroke-width="6" d="M424.558,1483.41    c-1.891,2.287,190.881-106.068,190.881-106.068l43.49,62.792l156.841-100.59" class="colorStroke8ECC36 svgStroke"/><rect width="108.355" height="13.858" x="411.328" y="1339.544" fill="#e6f5ff" class="colorE6F5FF svgShape"/><rect width="68.037" height="13.858" x="411.328" y="1369.468" fill="#e6f5ff" class="colorE6F5FF svgShape"/></g><g fill="#000000" class="color000 svgShape"><rect width="202.453" height="16.526" x="895.733" y="1311.24" fill="#8ecc36" class="color8ECC36 svgShape"/><rect width="139.188" height="16.526" x="895.733" y="1340.999" fill="#8ecc36" class="color8ECC36 svgShape"/><rect width="166.526" height="16.526" x="895.733" y="1370.756" fill="#8ecc36" class="color8ECC36 svgShape"/><rect width="96.85" height="16.526" x="895.733" y="1400.514" fill="#8ecc36" class="color8ECC36 svgShape"/></g><g fill="#000000" class="color000 svgShape"><rect width="195.922" height="23.848" x="2274.233" y="1086.884" fill="#ff8500" class="colorFF8500 svgShape"/><rect width="292.142" height="23.847" x="2178.014" y="1129.825" fill="#ff8500" class="colorFF8500 svgShape"/><rect width="191.313" height="23.847" x="2187.654" y="1172.766" fill="#ff8500" class="colorFF8500 svgShape"/><rect width="139.754" height="23.848" x="2178.014" y="1215.706" fill="#ff8500" class="colorFF8500 svgShape"/></g><g fill="#000000" class="color000 svgShape"><rect width="246.507" height="20.123" x="1027.734" y="1532.063" fill="#bbe2ef" class="colorBBE2EF svgShape"/><rect width="148.44" height="20.121" x="1027.734" y="1568.297" fill="#bbe2ef" class="colorBBE2EF svgShape"/><rect width="246.507" height="20.123" x="1027.734" y="1604.529" fill="#bbe2ef" class="colorBBE2EF svgShape"/><rect width="117.924" height="20.122" x="1027.734" y="1640.763" fill="#bbe2ef" class="colorBBE2EF svgShape"/></g><g fill="#000000" class="color000 svgShape"><path fill="#b6d2fc" d="M1491.523,1338.552c-73.365,35.537-84.828,73.365-104.315,202.9s-61.137,404.271-61.137,404.271    l143.905,55.022l105.229-359.181L1491.523,1338.552z" class="colorB6D2FC svgShape"/><path fill="#9cbdef" d="M1598.131,1288.497l-106.607,50.055c0,0-30.056,136.413-18.467,228.12    c11.589,91.706,49.123,366.822,27.49,501.326c-4.424,27.503-8.805,53.918-12.976,78.542l502.334-5.77    c-8.852-84.925-16.301-175.501-14.249-225.043c4.586-110.621,62.667-263.464,62.667-263.464l31.499-321.282l-110.213-67.704    l-286.582,6.877L1598.131,1288.497z" class="color9CBDEF svgShape"/><path fill="#557fe5" d="M1873.823,1853.253c-25.793,18.342-33.816,92.088,4.012,124.949c0,0,44.323-34.39,44.323-35.918    c0-1.527,4.16-58.844,4.16-58.844l-29.379-21.781L1873.823,1853.253z" class="color557FE5 svgShape"/><path fill="#ffcc7b" d="M1874.26,1865.894c-31.414-3.51-42.374-25.429-100.822-45.155c-58.452-19.727-85.117-22.65-122.747-24.841    c-37.628-2.191-43.471-0.73-42.374,10.594c1.096,11.324,13.515,15.342,37.99,18.996c24.479,3.653,42.743,4.977,42.743,4.977    s-80.006,4.157-96.809,4.157s-76.348-2.192-75.617,13.151c0.729,15.343,33.605,18.994,67.214,20.457    c33.611,1.462,76.717,0,76.717,0s-36.167,10.594-70.141,12.056c-33.973,1.46-89.502-1.097-89.865,20.457    c-0.365,21.554,58.447,12.787,88.771,9.499c30.321-3.288,74.522-2.192,74.522-2.192s-137.355,23.745-137.721,35.435    c-0.367,11.69,23.014,15.708,80.734,8.037c57.717-7.672,67.581-9.498,67.581-9.498s-100.461,30.686-97.174,44.934    c3.29,14.247,38.36,5.114,67.949-1.461c29.59-6.575,53.701-10.595,77.812-4.749c24.11,5.844,46.576-4.567,88.222-17.17    c41.646-12.604,79.458-0.55,79.458-0.55l35.615-44.383l-8.766-48.222L1874.26,1865.894z" class="colorFFCC7B svgShape"/><path fill="#efb96a" d="M1673.789,1190.676c4.586,45.09,0,57.316-32.097,76.422c-32.098,19.106-43.562,21.399-43.562,21.399    s-17.576,27.512,140.616,20.633c158.192-6.877,220.861-45.853,220.861-45.853s-86.357-43.562-109.284-120.747    s-22.927-121.51-22.927-121.51l-128.389,76.422L1673.789,1190.676z" class="colorEFB96A svgShape"/><path fill="#ffcc7b" d="M1494.962,961.411c18.341,45.088,32.094,83.3,37.446,115.397c5.352,32.098,61.902,112.34,100.877,130.682    c38.976,18.341,135.267-55.787,164.308-107.755c29.041-51.967,34.39-71.072,34.39-71.072s28.275,16.048,53.495-22.163    c25.22-38.21,31.331-60.373,6.878-94.762c-24.455-34.389-202.516-182.649-300.336-159.722    c-97.821,22.926-112.34,46.616-116.925,82.536c-4.585,35.918,0,83.3,0,83.3L1494.962,961.411z" class="colorFFCC7B svgShape"/><path fill="#1f1f1f" d="M1542.074,809.533c-67.746,117.871,27.4,219.511,113.373,198.877    c85.976-20.634,110.814-32.479,110.814-32.479l-32.863-86.357c0,0,34.007,61.901,50.438,80.243    c16.432,18.341,30.186-6.878,32.861,3.057s4.586,39.09,12.61,37.504c8.023-1.586,7.259-31.772,10.317-60.431    c3.058-28.658,22.925-49.673,37.827-46.234c14.903,3.439,14.903,8.024,14.903,8.024s15.282-168.128-77.95-223.152    c-93.233-55.023-187.232-47.38-258.305,5.351s-165.836,176.533-61.138,267.476c0,0-26.412-70,0.558-127.312    c0.555-1.181,1.133-2.357,1.734-3.526c0,0-22.16,75.814,21.399,140.773C1518.654,971.346,1474.711,871.997,1542.074,809.533z" class="color1F1F1F svgShape"/><path fill="#b6d2fc" d="M2165.56,2021.767c-99.729-5.74-287.729-43.56-287.729-43.56s26.37-30.95,18.92-75.66    c-0.28-1.66-0.57-3.271-0.87-4.82c0,0,0-0.04-0.01-0.11c-7.73-40.119-22.05-44.359-22.05-44.359s177.68-5.16,208.06-9.17    c30.38-4.021,37.26-5.74,37.26-5.74s-135.08-176.15-177.109-285.43c-42.03-109.28-46.94-132.21-34.17-163.54    c13.479-33.091,37.64-58.96,65.97-71.38l0.01-0.011c42.84-18.77,95.24-6.76,134.79,57.63c65.72,106.99,198.7,453.94,209.4,557.881    C2328.72,2037.427,2265.29,2027.497,2165.56,2021.767z" class="colorB6D2FC svgShape"/><path fill="#9cbdef" d="M2277.35,1946.896l-157.58-93.64c0,0-184.77,11.84-205.439,11.18c-19.98-0.65-18.57,31.08-18.46,33.18    c-7.73-40.119-22.05-44.359-22.05-44.359s177.68-5.16,208.06-9.17c30.38-4.021,37.26-5.74,37.26-5.74    s-135.08-176.15-177.109-285.43c-42.03-109.28-46.94-132.21-34.17-163.54c13.479-33.091,37.64-58.96,65.97-71.38    c-89.76,89.359-39.22,166.279,0.01,267.029c39.22,100.75,142.49,227.41,166.49,258.74    C2163.59,1874.127,2270.73,1942.667,2277.35,1946.896z" class="color9CBDEF svgShape"/></g><rect width="1088.818" height="35.309" x="876.88" y="2108.713" fill="#565656" class="color565656 svgShape"/><polygon fill="#565656" points="1561.036 2108.713 858.044 2108.713 606.428 1706.795 1309.418 1706.795" class="color565656 svgShape"/><polygon fill="#aaaaaa" points="1537.396 2108.713 834.402 2108.713 582.785 1706.795 1285.774 1706.795" class="colorAAA svgShape"/><g fill="#000000" class="color000 svgShape"><path fill="#424242" d="M2120.369,2144.11H1938.84c0,0,8.199,0,31.529-21.13c23.34-21.14,70-83.34,140-120.21    c0,0,20.13,70.38,21.391,111.81C2132.289,2132.051,2129.459,2144.37,2120.369,2144.11z" class="color424242 svgShape"/><path fill="#eaeaea" d="M2487.77,2220.311c-54,50.23-147.039,282.337-242.369,192.667    c-40.65-38.23,123.369-187.667,165.369-206.667s42-61,42-61s-13.12,1.06-33.42,2.41c-64.7,4.28-202.311,11.46-220.58-3.61    c-11.19-9.24-29.13-24.609-45.09-38.38c-18.25-15.75-33.91-29.42-33.91-29.42l2.95-93.79c42.989-82.21,228.05-85.34,315.05-33.34    S2541.77,2170.08,2487.77,2220.311z" class="colorEAEAEA svgShape"/><path fill="#424242" d="M2263.124 2343.445c-3.058 21.532-3.058 23.533 12.942 36.866s14.934-24.668 31.134-13.334 33.534 0 52.2-27.333 21.168-23.999 41.584-41.333 54.407-36.673 54.407-36.673-55.853 105.34-96.922 142.673-76.402 44.784-105.069 29.059-24.668-48.727-16.001-62.727S2263.124 2343.445 2263.124 2343.445zM2419.35 2147.721c-26.62 1.76-65.601 4.01-103.521 5.01-54.229 1.41-106.31.25-117.06-8.62-9.64-7.96-24.28-20.46-38.351-32.569-2.27-1.961-4.52-3.9-6.739-5.811 1.819-37.03 3.72-75.27 3.72-75.27l-7-79.15c58-15 98.95 4 107.97 19 9.03 15 20.03 10 53.03 22s60-13 76 20-26.2 64.34-21.6 88.17c4.6 23.83 27.6 27.66 40.6 25.74C2414.68 2125.001 2420.119 2135.9 2419.35 2147.721z" class="color424242 svgShape"/><path fill="#eaeaea" d="M2120.369 2144.11h-180.47c10.46-4.131 23.167-13.133 45.75-16.05 12.969-1.675 87.885-8.032 91.56-13.75 6.86-10.67 24.12-20.91 46.49-3.12 2.17 1.72 4.891 2.811 8.061 3.39C2132.289 2132.051 2129.459 2144.37 2120.369 2144.11zM2338.056 2152.73c-54.229 1.41-128.536.25-139.286-8.62-9.64-7.96-24.28-20.46-38.351-32.569 32.15-8.36 72.45-27.91 82.311-19.061 14.67 13.16 39.03-.12 42.18 15.86 3.16 15.97 7.207 19.468 27.157 29.668C2317.606 2140.839 2335.166 2148.851 2338.056 2152.73z" class="colorEAEAEA svgShape"/><path fill="#f4f4f4" d="M2279.709,2066.98c-7.46,29.29-16.18,48.5-27.54,61c-16.05,17.66-37.35,21.94-67.8,22.33    c-52,0.67-64-6.2-64-6.2c-84-74.47-31.33-188.47,38.67-194.47c38.091-3.26,75.78,10.84,99.33,35.76    C2278.109,2006.28,2287.919,2034.761,2279.709,2066.98z" class="colorF4F4F4 svgShape"/><path fill="#eaa03d" d="M2265.039,2046.311c91.667-35.666,100.736,0,100.736,0s4.264,30.667-98.069,35.333    c-41.377,1.887-2.667-31.877-2.667-31.877V2046.311z" class="colorEAA03D svgShape"/><path fill="#eaa03d" d="M2279.709,2066.98c-7.46,29.29-16.18,48.5-27.54,61c-36.21,1.46-52.829-19.29-53.77-33.17    c-0.99-14.65-38.5-9.5-31.98-27c6.511-17.5,17.98-21.5,28.48-37.35c10.5-15.851,31-3.65,63.47-45.061    C2278.109,2006.28,2287.919,2034.761,2279.709,2066.98z" class="colorEAA03D svgShape"/><path fill="#f4f4f4" d="M2137.488,1997.976c-70.065-69.034-41.237-91.909-41.237-91.909s26.234-16.444,72.383,75.013    c18.659,36.979-27.992,15.482-27.992,15.482L2137.488,1997.976z" class="colorF4F4F4 svgShape"/><path fill="#232323" d="M2115.372,2121.472c0,13.266,12.334,19.506,21.334,15.173s5.333-10.346-6.667-15.173    S2115.372,2114.632,2115.372,2121.472z" class="color232323 svgShape"/><polygon fill="#a0a0a0" points="2173.065 2107.572 2291.04 2114.312 2173.013 2108.57" class="colorA0A0A0 svgShape"/><polygon fill="#a0a0a0" points="2170.862 2113.837 2280.373 2150.356 2170.55 2114.786" class="colorA0A0A0 svgShape"/><polygon fill="#a0a0a0" points="2166.673 2118.507 2258.372 2174.144 2166.157 2119.364" class="colorA0A0A0 svgShape"/><polygon fill="#a0a0a0" points="2113.788 2092.945 2004.028 2049.172 2114.155 2092.016" class="colorA0A0A0 svgShape"/><polygon fill="#a0a0a0" points="2117.863 2087.703 2025.567 2018.364 2118.461 2086.9" class="colorA0A0A0 svgShape"/><polygon fill="#a0a0a0" points="2123.317 2084.6 2053.972 2002.774 2124.077 2083.949" class="colorA0A0A0 svgShape"/><path fill="#eaa03d" d="M2258.372 1915.956c1.527 25.854 26.527 44.925 36.027 37.89s16.598-19.48 24.799-8.008 9.201 17.707 25.701 3.34 44.896-20.521 44.896-20.521S2327.011 1906.935 2258.372 1915.956zM2397.899 2061.311c-16.129 11.318-20 10.982-11.5 25.991s29.545 20.009 33.022 2.509S2408.589 2053.81 2397.899 2061.311z" class="colorEAA03D svgShape"/></g></svg>